<svg width="617" height="117" viewBox="0 0 617 117" fill="none" xmlns="http://www.w3.org/2000/svg">
<path d="M0 21.6205C0 19.523 0 18.4742 0.407969 17.6731C0.766828 16.9684 1.33944 16.3954 2.04374 16.0364C2.84443 15.6282 3.89258 15.6282 5.98889 15.6282H25.2495C27.3458 15.6282 28.3939 15.6282 29.1946 16.0364C29.8989 16.3954 30.4715 16.9684 30.8304 17.6731C31.2384 18.4742 31.2384 19.523 31.2384 21.6205V40.8921C31.2384 42.9896 31.2384 44.0383 30.8304 44.8395C30.4715 45.5442 29.8989 46.1171 29.1946 46.4762C28.3939 46.8844 27.3458 46.8844 25.2495 46.8844H5.9889C3.89258 46.8844 2.84443 46.8844 2.04374 46.4762C1.33944 46.1171 0.766828 45.5442 0.407969 44.8395C0 44.0383 0 42.9896 0 40.8921V21.6205Z" fill="#165DFF"/>
<path d="M0 5.99232C0 3.89481 0 2.84606 0.407969 2.04491C0.766828 1.34021 1.33944 0.767267 2.04374 0.408202C2.84443 0 3.89258 0 5.98889 0H91.3306C93.4269 0 94.4751 0 95.2757 0.408202C95.98 0.767267 96.5527 1.34021 96.9115 2.04491C97.3195 2.84606 97.3195 3.89481 97.3195 5.99232V7.23146C97.3195 9.32898 97.3195 10.3777 96.9115 11.1789C96.5527 11.8836 95.98 12.4565 95.2757 12.8156C94.4751 13.2238 93.4269 13.2238 91.3306 13.2238H5.98889C3.89258 13.2238 2.84443 13.2238 2.04374 12.8156C1.33944 12.4565 0.766828 11.8836 0.407969 11.1789C0 10.3777 0 9.32898 0 7.23147V5.99232Z" fill="#165DFF"/>
<path d="M66.081 87.7393C66.081 85.6418 66.081 84.5931 66.489 83.7919C66.8479 83.0872 67.4205 82.5143 68.1248 82.1552C68.9255 81.747 69.9736 81.747 72.0699 81.747H91.3305C93.4268 81.747 94.475 81.747 95.2757 82.1552C95.98 82.5143 96.5526 83.0872 96.9114 83.7919C97.3194 84.5931 97.3194 85.6418 97.3194 87.7393V107.011C97.3194 109.108 97.3194 110.157 96.9114 110.958C96.5526 111.663 95.98 112.236 95.2757 112.595C94.475 113.003 93.4268 113.003 91.3305 113.003H72.0699C69.9736 113.003 68.9255 113.003 68.1248 112.595C67.4205 112.236 66.8479 111.663 66.489 110.958C66.081 110.157 66.081 109.108 66.081 107.011V87.7393Z" fill="#165DFF"/>
<path d="M33.0405 87.7393C33.0405 85.6418 33.0405 84.5931 33.4485 83.7919C33.8074 83.0872 34.38 82.5143 35.0843 82.1552C35.885 81.747 36.9331 81.747 39.0294 81.747H58.29C60.3863 81.747 61.4345 81.747 62.2351 82.1552C62.9394 82.5143 63.5121 83.0872 63.8709 83.7919C64.2789 84.5931 64.2789 85.6418 64.2789 87.7393V107.011C64.2789 109.108 64.2789 110.157 63.8709 110.958C63.5121 111.663 62.9394 112.236 62.2351 112.595C61.4345 113.003 60.3863 113.003 58.29 113.003H39.0294C36.9331 113.003 35.885 113.003 35.0843 112.595C34.38 112.236 33.8074 111.663 33.4485 110.958C33.0405 110.157 33.0405 109.108 33.0405 107.011V87.7393Z" fill="#165DFF"/>
<path d="M0 87.7393C0 85.6418 0 84.5931 0.407969 83.7919C0.766828 83.0872 1.33944 82.5143 2.04374 82.1552C2.84443 81.747 3.89258 81.747 5.98889 81.747H25.2495C27.3458 81.747 28.3939 81.747 29.1946 82.1552C29.8989 82.5143 30.4715 83.0872 30.8304 83.7919C31.2384 84.5931 31.2384 85.6418 31.2384 87.7393V107.011C31.2384 109.108 31.2384 110.157 30.8304 110.958C30.4715 111.663 29.8989 112.236 29.1946 112.595C28.3939 113.003 27.3458 113.003 25.2495 113.003H5.9889C3.89258 113.003 2.84443 113.003 2.04374 112.595C1.33944 112.236 0.766828 111.663 0.407969 110.958C0 110.157 0 109.108 0 107.011V87.7393Z" fill="#165DFF"/>
<path d="M66.081 54.6799C66.081 52.5824 66.081 51.5336 66.489 50.7325C66.8479 50.0278 67.4205 49.4548 68.1248 49.0958C68.9255 48.6876 69.9736 48.6876 72.0699 48.6876H91.3305C93.4268 48.6876 94.475 48.6876 95.2757 49.0958C95.98 49.4548 96.5526 50.0278 96.9114 50.7325C97.3194 51.5336 97.3194 52.5824 97.3194 54.6799V73.9515C97.3194 76.049 97.3194 77.0977 96.9114 77.8989C96.5526 78.6036 95.98 79.1765 95.2757 79.5356C94.475 79.9438 93.4268 79.9438 91.3305 79.9438H72.0699C69.9736 79.9438 68.9255 79.9438 68.1248 79.5356C67.4205 79.1765 66.8479 78.6036 66.489 77.8989C66.081 77.0977 66.081 76.049 66.081 73.9515V54.6799Z" fill="#165DFF"/>
<path d="M33.0405 54.6799C33.0405 52.5824 33.0405 51.5336 33.4485 50.7325C33.8074 50.0278 34.38 49.4548 35.0843 49.0958C35.885 48.6876 36.9331 48.6876 39.0294 48.6876H58.29C60.3863 48.6876 61.4345 48.6876 62.2351 49.0958C62.9394 49.4548 63.5121 50.0278 63.8709 50.7325C64.2789 51.5336 64.2789 52.5824 64.2789 54.6799V73.9515C64.2789 76.049 64.2789 77.0977 63.8709 77.8989C63.5121 78.6036 62.9394 79.1765 62.2351 79.5356C61.4345 79.9438 60.3863 79.9438 58.29 79.9438H39.0294C36.9331 79.9438 35.885 79.9438 35.0843 79.5356C34.38 79.1765 33.8074 78.6036 33.4485 77.8989C33.0405 77.0977 33.0405 76.049 33.0405 73.9515V54.6799Z" fill="#165DFF"/>
<path d="M0 54.6799C0 52.5824 0 51.5336 0.407969 50.7325C0.766828 50.0278 1.33944 49.4548 2.04374 49.0958C2.84443 48.6876 3.89258 48.6876 5.98889 48.6876H25.2495C27.3458 48.6876 28.3939 48.6876 29.1946 49.0958C29.8989 49.4548 30.4715 50.0278 30.8304 50.7325C31.2384 51.5336 31.2384 52.5824 31.2384 54.6799V73.9515C31.2384 76.049 31.2384 77.0977 30.8304 77.8989C30.4715 78.6036 29.8989 79.1765 29.1946 79.5356C28.3939 79.9438 27.3458 79.9438 25.2495 79.9438H5.9889C3.89258 79.9438 2.84443 79.9438 2.04374 79.5356C1.33944 79.1765 0.766828 78.6036 0.407969 77.8989C0 77.0977 0 76.049 0 73.9515V54.6799Z" fill="#165DFF"/>
<path d="M66.081 21.6205C66.081 19.523 66.081 18.4742 66.489 17.6731C66.8479 16.9684 67.4205 16.3954 68.1248 16.0364C68.9255 15.6282 69.9736 15.6282 72.0699 15.6282H91.3305C93.4268 15.6282 94.475 15.6282 95.2757 16.0364C95.98 16.3954 96.5526 16.9684 96.9114 17.6731C97.3194 18.4742 97.3194 19.523 97.3194 21.6205V40.8921C97.3194 42.9896 97.3194 44.0383 96.9114 44.8395C96.5526 45.5442 95.98 46.1171 95.2757 46.4762C94.475 46.8844 93.4268 46.8844 91.3305 46.8844H72.0699C69.9736 46.8844 68.9255 46.8844 68.1248 46.4762C67.4205 46.1171 66.8479 45.5442 66.489 44.8395C66.081 44.0383 66.081 42.9896 66.081 40.8921V21.6205Z" fill="#165DFF"/>
<path d="M33.0405 21.6205C33.0405 19.523 33.0405 18.4742 33.4485 17.6731C33.8074 16.9684 34.38 16.3954 35.0843 16.0364C35.885 15.6282 36.9331 15.6282 39.0294 15.6282H58.29C60.3863 15.6282 61.4345 15.6282 62.2351 16.0364C62.9394 16.3954 63.5121 16.9684 63.8709 17.6731C64.2789 18.4742 64.2789 19.523 64.2789 21.6205V40.8921C64.2789 42.9896 64.2789 44.0383 63.8709 44.8395C63.5121 45.5442 62.9394 46.1171 62.2351 46.4762C61.4345 46.8844 60.3863 46.8844 58.29 46.8844H39.0294C36.9331 46.8844 35.885 46.8844 35.0843 46.4762C34.38 46.1171 33.8074 45.5442 33.4485 44.8395C33.0405 44.0383 33.0405 42.9896 33.0405 40.8921V21.6205Z" fill="#165DFF"/>
<path d="M127.908 117V47.609H141.697V53.2268C143.554 50.9796 145.859 49.2419 148.614 48.0134C151.369 46.785 154.334 46.1708 157.508 46.1708C161.94 46.1708 165.877 47.2344 169.321 49.3617C172.795 51.489 175.519 54.3953 177.496 58.0805C179.502 61.7658 180.505 65.9454 180.505 70.6195C180.505 75.2335 179.517 79.3982 177.541 83.1134C175.564 86.7987 172.854 89.72 169.411 91.8772C165.997 94.0045 162.134 95.0681 157.822 95.0681C154.678 95.0681 151.714 94.4239 148.929 93.1356C146.144 91.8173 143.733 89.9597 141.697 87.5627V117H127.908ZM153.735 83.3382C156.13 83.3382 158.242 82.7988 160.068 81.7202C161.925 80.6116 163.377 79.1136 164.425 77.226C165.473 75.3084 165.997 73.1213 165.997 70.6644C165.997 68.2076 165.458 66.0204 164.38 64.1028C163.302 62.1853 161.85 60.6722 160.023 59.5636C158.197 58.4551 156.1 57.9008 153.735 57.9008C151.369 57.9008 149.243 58.4551 147.357 59.5636C145.5 60.6722 144.033 62.1853 142.955 64.1028C141.877 65.9904 141.338 68.1776 141.338 70.6644C141.338 73.0913 141.862 75.2635 142.91 77.1811C143.988 79.0986 145.47 80.6116 147.357 81.7202C149.243 82.7988 151.369 83.3382 153.735 83.3382Z" fill="#1D2129"/>
<path d="M193.177 93.63V16.3291H206.967V93.63H193.177Z" fill="#1D2129"/>
<path d="M242.36 95.0681C238.138 95.0681 234.29 94.0195 230.816 91.9222C227.372 89.7949 224.633 86.8886 222.596 83.2033C220.59 79.4881 219.587 75.2635 219.587 70.5296C219.587 65.9155 220.56 61.7808 222.507 58.1255C224.453 54.4402 227.133 51.5339 230.547 49.4067C233.99 47.2494 237.928 46.1708 242.36 46.1708C245.624 46.1708 248.663 46.8 251.478 48.0584C254.323 49.2868 256.643 51.0096 258.44 53.2268V47.609H272.229V93.63H258.44V87.5627C256.344 89.9896 253.933 91.8472 251.208 93.1356C248.483 94.4239 245.534 95.0681 242.36 95.0681ZM246.447 83.3382C248.843 83.3382 250.969 82.7988 252.825 81.7202C254.682 80.6116 256.134 79.0986 257.182 77.1811C258.23 75.2635 258.754 73.0763 258.754 70.6195C258.754 68.1326 258.215 65.9455 257.137 64.0579C256.089 62.1403 254.637 60.6423 252.78 59.5636C250.954 58.4551 248.843 57.9008 246.447 57.9008C244.081 57.9008 241.97 58.4551 240.114 59.5636C238.257 60.6423 236.79 62.1403 235.712 64.0579C234.634 65.9754 234.095 68.1626 234.095 70.6195C234.095 73.0763 234.619 75.2635 235.667 77.1811C236.745 79.0986 238.212 80.6116 240.069 81.7202C241.925 82.7988 244.052 83.3382 246.447 83.3382Z" fill="#1D2129"/>
<path d="M288.45 93.63V47.609H302.239V52.7324C304.006 50.7549 306.207 49.167 308.842 47.9685C311.507 46.77 314.442 46.1708 317.646 46.1708C321.179 46.1708 324.278 46.9498 326.943 48.5078C329.638 50.0359 331.75 52.1781 333.277 54.9346C334.804 57.6611 335.567 60.852 335.567 64.5073V93.63H321.778V67.4286C321.778 64.1328 320.91 61.5711 319.173 59.7434C317.466 57.8858 315.115 56.957 312.121 56.957C310.085 56.957 308.318 57.3764 306.821 58.2154C305.353 59.0243 304.216 60.1479 303.407 61.586C302.629 62.9942 302.239 64.5972 302.239 66.3949V93.63H288.45Z" fill="#1D2129"/>
<path d="M350.867 93.63V47.609H364.657V93.63H350.867ZM357.784 38.0362C356.287 38.0362 354.91 37.6767 353.652 36.9576C352.424 36.2086 351.436 35.2049 350.688 33.9465C349.939 32.6881 349.565 31.3099 349.565 29.8118C349.565 28.3137 349.939 26.9504 350.688 25.722C351.436 24.4936 352.424 23.5198 353.652 22.8008C354.91 22.0517 356.287 21.6772 357.784 21.6772C359.282 21.6772 360.644 22.0517 361.872 22.8008C363.099 23.5198 364.073 24.4936 364.791 25.722C365.54 26.9504 365.914 28.3137 365.914 29.8118C365.914 31.3099 365.54 32.6881 364.791 33.9465C364.073 35.2049 363.099 36.2086 361.872 36.9576C360.644 37.6767 359.282 38.0362 357.784 38.0362Z" fill="#1D2129"/>
<path d="M380.915 93.63V47.609H394.704V52.7324C396.98 50.4553 399.241 48.7924 401.487 47.7438C403.733 46.6951 406.158 46.1708 408.763 46.1708C412.297 46.1708 415.486 46.9648 418.331 48.5528C421.175 50.1407 423.212 52.268 424.439 54.9346C426.685 52.0283 429.096 49.8411 431.671 48.373C434.246 46.9049 437.196 46.1708 440.52 46.1708C443.843 46.1708 446.793 46.8599 449.368 48.2382C451.943 49.6164 453.965 51.5789 455.432 54.1256C456.929 56.6424 457.678 59.6236 457.678 63.0691V93.63H443.888V66.8443C443.888 63.8481 443.11 61.4962 441.553 59.7883C439.995 58.0506 437.914 57.1817 435.309 57.1817C433.513 57.1817 431.925 57.5562 430.548 58.3052C429.201 59.0543 428.137 60.058 427.359 61.3164C426.58 62.5748 426.191 63.968 426.191 65.496V93.63H412.402V66.5746C412.402 63.7283 411.638 61.4512 410.111 59.7434C408.614 58.0356 406.533 57.1817 403.867 57.1817C402.101 57.1817 400.514 57.5562 399.106 58.3052C397.729 59.0543 396.651 60.073 395.872 61.3613C395.094 62.6497 394.704 64.0729 394.704 65.6309V93.63H380.915Z" fill="#1D2129"/>
<path d="M503.164 95.0681C499.99 95.0681 497.011 94.409 494.226 93.0907C491.441 91.7723 489.03 89.9297 486.994 87.5627V93.63H473.205V16.3291H486.994V53.2268C488.821 51.0096 491.112 49.2868 493.866 48.0584C496.621 46.8 499.601 46.1708 502.805 46.1708C507.237 46.1708 511.189 47.2494 514.663 49.4067C518.136 51.5339 520.861 54.4402 522.838 58.1255C524.814 61.7808 525.802 65.9454 525.802 70.6195C525.802 75.3834 524.784 79.6079 522.748 83.2932C520.712 86.9785 517.972 89.8698 514.528 91.9671C511.115 94.0344 507.327 95.0681 503.164 95.0681ZM499.032 83.3382C501.457 83.3382 503.583 82.7988 505.41 81.7202C507.237 80.6116 508.674 79.1136 509.722 77.226C510.77 75.3084 511.294 73.1362 511.294 70.7093C511.294 68.2525 510.755 66.0653 509.677 64.1478C508.599 62.2003 507.147 60.6722 505.32 59.5636C503.494 58.4551 501.398 57.9008 499.032 57.9008C496.666 57.9008 494.54 58.4551 492.654 59.5636C490.797 60.6722 489.33 62.1853 488.252 64.1028C487.174 66.0204 486.635 68.2225 486.635 70.7093C486.635 73.1362 487.159 75.3084 488.207 77.226C489.285 79.1136 490.752 80.6116 492.609 81.7202C494.495 82.7988 496.636 83.3382 499.032 83.3382Z" fill="#1D2129"/>
<path d="M538.474 93.63V16.3291H552.264V93.63H538.474Z" fill="#1D2129"/>
<path d="M566.064 117L580.932 87.8773L559.057 47.609H574.868L588.972 74.5744L601.189 47.609H617L581.83 117H566.064Z" fill="#1D2129"/>
</svg>
