<svg width="32" height="32" viewBox="0 0 32 32" fill="none" xmlns="http://www.w3.org/2000/svg">
<path d="M3 6.77285C3 6.2128 3 5.93277 3.10899 5.71886C3.20487 5.5307 3.35785 5.37772 3.54601 5.28185C3.75992 5.17285 4.03995 5.17285 4.6 5.17285H9.74568C10.3057 5.17285 10.5858 5.17285 10.7997 5.28185C10.9878 5.37772 11.1408 5.5307 11.2367 5.71886C11.3457 5.93277 11.3457 6.2128 11.3457 6.77285V11.9185C11.3457 12.4786 11.3457 12.7586 11.2367 12.9725C11.1408 13.1607 10.9878 13.3137 10.7997 13.4095C10.5858 13.5185 10.3057 13.5185 9.74568 13.5185H4.6C4.03995 13.5185 3.75992 13.5185 3.54601 13.4095C3.35785 13.3137 3.20487 13.1607 3.10899 12.9725C3 12.7586 3 12.4786 3 11.9185V6.77285Z" fill="#165DFF" class="favicon--color"/>
<path d="M3 2.6C3 2.03995 3 1.75992 3.10899 1.54601C3.20487 1.35785 3.35785 1.20487 3.54601 1.10899C3.75992 1 4.03995 1 4.6 1H27.4C27.9601 1 28.2401 1 28.454 1.10899C28.6422 1.20487 28.7951 1.35785 28.891 1.54601C29 1.75992 29 2.03995 29 2.6V2.93086C29 3.49092 29 3.77094 28.891 3.98485C28.7951 4.17302 28.6422 4.326 28.454 4.42187C28.2401 4.53086 27.9601 4.53086 27.4 4.53086H4.6C4.03995 4.53086 3.75992 4.53086 3.54601 4.42187C3.35785 4.326 3.20487 4.17302 3.10899 3.98485C3 3.77094 3 3.49092 3 2.93086V2.6Z" fill="#165DFF" class="favicon--color"/>
<path d="M20.6543 24.4271C20.6543 23.8671 20.6543 23.5871 20.7633 23.3732C20.8592 23.185 21.0121 23.032 21.2003 22.9361C21.4142 22.8271 21.6942 22.8271 22.2543 22.8271H27.4C27.96 22.8271 28.2401 22.8271 28.454 22.9361C28.6421 23.032 28.7951 23.185 28.891 23.3732C29 23.5871 29 23.8671 29 24.4271V29.5728C29 30.1329 29 30.4129 28.891 30.6268C28.7951 30.815 28.6421 30.968 28.454 31.0638C28.2401 31.1728 27.96 31.1728 27.4 31.1728H22.2543C21.6942 31.1728 21.4142 31.1728 21.2003 31.0638C21.0121 30.968 20.8592 30.815 20.7633 30.6268C20.6543 30.4129 20.6543 30.1329 20.6543 29.5728V24.4271Z" fill="#165DFF" class="favicon--color"/>
<path d="M11.8271 24.4271C11.8271 23.8671 11.8271 23.5871 11.9361 23.3732C12.032 23.185 12.185 23.032 12.3732 22.9361C12.5871 22.8271 12.8671 22.8271 13.4271 22.8271H18.5728C19.1329 22.8271 19.4129 22.8271 19.6268 22.9361C19.815 23.032 19.968 23.185 20.0638 23.3732C20.1728 23.5871 20.1728 23.8671 20.1728 24.4271V29.5728C20.1728 30.1329 20.1728 30.4129 20.0638 30.6268C19.968 30.815 19.815 30.968 19.6268 31.0638C19.4129 31.1728 19.1329 31.1728 18.5728 31.1728H13.4271C12.8671 31.1728 12.5871 31.1728 12.3732 31.0638C12.185 30.968 12.032 30.815 11.9361 30.6268C11.8271 30.4129 11.8271 30.1329 11.8271 29.5728V24.4271Z" fill="#165DFF" class="favicon--color"/>
<path d="M3 24.4271C3 23.8671 3 23.5871 3.10899 23.3732C3.20487 23.185 3.35785 23.032 3.54601 22.9361C3.75992 22.8271 4.03995 22.8271 4.6 22.8271H9.74568C10.3057 22.8271 10.5858 22.8271 10.7997 22.9361C10.9878 23.032 11.1408 23.185 11.2367 23.3732C11.3457 23.5871 11.3457 23.8671 11.3457 24.4271V29.5728C11.3457 30.1329 11.3457 30.4129 11.2367 30.6268C11.1408 30.815 10.9878 30.968 10.7997 31.0638C10.5858 31.1728 10.3057 31.1728 9.74568 31.1728H4.6C4.03995 31.1728 3.75992 31.1728 3.54601 31.0638C3.35785 30.968 3.20487 30.815 3.10899 30.6268C3 30.4129 3 30.1329 3 29.5728V24.4271Z" fill="#165DFF" class="favicon--color"/>
<path d="M20.6543 15.6C20.6543 15.0399 20.6543 14.7599 20.7633 14.546C20.8592 14.3578 21.0121 14.2049 21.2003 14.109C21.4142 14 21.6942 14 22.2543 14H27.4C27.96 14 28.2401 14 28.454 14.109C28.6421 14.2049 28.7951 14.3578 28.891 14.546C29 14.7599 29 15.0399 29 15.6V20.7457C29 21.3057 29 21.5858 28.891 21.7997C28.7951 21.9878 28.6421 22.1408 28.454 22.2367C28.2401 22.3457 27.96 22.3457 27.4 22.3457H22.2543C21.6942 22.3457 21.4142 22.3457 21.2003 22.2367C21.0121 22.1408 20.8592 21.9878 20.7633 21.7997C20.6543 21.5858 20.6543 21.3057 20.6543 20.7457V15.6Z" fill="#165DFF" class="favicon--color"/>
<path d="M11.8271 15.6C11.8271 15.0399 11.8271 14.7599 11.9361 14.546C12.032 14.3578 12.185 14.2049 12.3732 14.109C12.5871 14 12.8671 14 13.4271 14H18.5728C19.1329 14 19.4129 14 19.6268 14.109C19.815 14.2049 19.968 14.3578 20.0638 14.546C20.1728 14.7599 20.1728 15.0399 20.1728 15.6V20.7457C20.1728 21.3057 20.1728 21.5858 20.0638 21.7997C19.968 21.9878 19.815 22.1408 19.6268 22.2367C19.4129 22.3457 19.1329 22.3457 18.5728 22.3457H13.4271C12.8671 22.3457 12.5871 22.3457 12.3732 22.2367C12.185 22.1408 12.032 21.9878 11.9361 21.7997C11.8271 21.5858 11.8271 21.3057 11.8271 20.7457V15.6Z" fill="#165DFF" class="favicon--color"/>
<path d="M3 15.6C3 15.0399 3 14.7599 3.10899 14.546C3.20487 14.3578 3.35785 14.2049 3.54601 14.109C3.75992 14 4.03995 14 4.6 14H9.74568C10.3057 14 10.5858 14 10.7997 14.109C10.9878 14.2049 11.1408 14.3578 11.2367 14.546C11.3457 14.7599 11.3457 15.0399 11.3457 15.6V20.7457C11.3457 21.3057 11.3457 21.5858 11.2367 21.7997C11.1408 21.9878 10.9878 22.1408 10.7997 22.2367C10.5858 22.3457 10.3057 22.3457 9.74568 22.3457H4.6C4.03995 22.3457 3.75992 22.3457 3.54601 22.2367C3.35785 22.1408 3.20487 21.9878 3.10899 21.7997C3 21.5858 3 21.3057 3 20.7457V15.6Z" fill="#165DFF" class="favicon--color"/>
<path d="M20.6543 6.77285C20.6543 6.2128 20.6543 5.93277 20.7633 5.71886C20.8592 5.5307 21.0121 5.37772 21.2003 5.28185C21.4142 5.17285 21.6942 5.17285 22.2543 5.17285H27.4C27.96 5.17285 28.2401 5.17285 28.454 5.28185C28.6421 5.37772 28.7951 5.5307 28.891 5.71886C29 5.93277 29 6.2128 29 6.77285V11.9185C29 12.4786 29 12.7586 28.891 12.9725C28.7951 13.1607 28.6421 13.3137 28.454 13.4095C28.2401 13.5185 27.96 13.5185 27.4 13.5185H22.2543C21.6942 13.5185 21.4142 13.5185 21.2003 13.4095C21.0121 13.3137 20.8592 13.1607 20.7633 12.9725C20.6543 12.7586 20.6543 12.4786 20.6543 11.9185V6.77285Z" fill="#165DFF" class="favicon--color"/>
<path d="M11.8271 6.77285C11.8271 6.2128 11.8271 5.93277 11.9361 5.71886C12.032 5.5307 12.185 5.37772 12.3732 5.28185C12.5871 5.17285 12.8671 5.17285 13.4271 5.17285H18.5728C19.1329 5.17285 19.4129 5.17285 19.6268 5.28185C19.815 5.37772 19.968 5.5307 20.0638 5.71886C20.1728 5.93277 20.1728 6.2128 20.1728 6.77285V11.9185C20.1728 12.4786 20.1728 12.7586 20.0638 12.9725C19.968 13.1607 19.815 13.3137 19.6268 13.4095C19.4129 13.5185 19.1329 13.5185 18.5728 13.5185H13.4271C12.8671 13.5185 12.5871 13.5185 12.3732 13.4095C12.185 13.3137 12.032 13.1607 11.9361 12.9725C11.8271 12.7586 11.8271 12.4786 11.8271 11.9185V6.77285Z" class="favicon--color"/>
<style>
    .favicon--color{fill: #165DFF;}
    @media (prefers-color-scheme: dark) {
	    .favicon--color {
		    background-color: white;
	    }
    }
</style>
</svg>
