<svg width="57" height="23" viewBox="0 0 57 23" fill="none" xmlns="http://www.w3.org/2000/svg">
<rect width="57" height="23" rx="6" fill="#86909C"/>
<path d="M16.272 16.256C15.456 16.256 14.8213 15.9973 14.368 15.48C13.9147 14.9573 13.688 14.2293 13.688 13.296V9.672H12.592V7.808H13.688V4.736H16.144V7.808H17.944V9.672H16.144V13.12C16.144 13.4293 16.2053 13.664 16.328 13.824C16.456 13.984 16.6347 14.064 16.864 14.064C17.12 14.064 17.3653 13.9787 17.6 13.808L18.216 15.776C17.9387 15.9253 17.6267 16.0427 17.28 16.128C16.9387 16.2133 16.6027 16.256 16.272 16.256ZM24.2746 16.256C23.3893 16.256 22.5946 16.0667 21.8906 15.688C21.192 15.304 20.6373 14.784 20.2266 14.128C19.816 13.472 19.6106 12.7307 19.6106 11.904C19.6106 11.296 19.7253 10.728 19.9546 10.2C20.1893 9.672 20.5146 9.21067 20.9306 8.816C21.3466 8.416 21.8293 8.10667 22.3786 7.888C22.928 7.664 23.5226 7.552 24.1626 7.552C25.016 7.552 25.7626 7.73067 26.4026 8.088C27.048 8.44 27.5493 8.93067 27.9066 9.56C28.2693 10.1893 28.4506 10.9227 28.4506 11.76C28.4506 11.8293 28.448 11.8907 28.4426 11.944C28.4426 11.992 28.4346 12.0853 28.4186 12.224H22.1386C22.1386 12.64 22.232 13.0027 22.4186 13.312C22.6106 13.6213 22.8773 13.864 23.2186 14.04C23.56 14.2107 23.9573 14.296 24.4106 14.296C24.8373 14.296 25.2133 14.2133 25.5386 14.048C25.8693 13.8827 26.1866 13.6187 26.4906 13.256L28.2586 14.144C27.8746 14.8053 27.3306 15.3227 26.6266 15.696C25.9226 16.0693 25.1386 16.256 24.2746 16.256ZM22.2266 10.864H26.0346C25.9813 10.5493 25.8666 10.2773 25.6906 10.048C25.52 9.81867 25.3013 9.64267 25.0346 9.52C24.768 9.39733 24.4666 9.336 24.1306 9.336C23.7733 9.336 23.4586 9.39733 23.1866 9.52C22.9146 9.64267 22.696 9.81867 22.5306 10.048C22.3653 10.2773 22.264 10.5493 22.2266 10.864ZM32.9243 16.256C32.2309 16.256 31.6096 16.1467 31.0603 15.928C30.5163 15.7093 30.0629 15.3893 29.7003 14.968L30.7323 13.32C31.0736 13.6827 31.4309 13.96 31.8043 14.152C32.1776 14.344 32.5509 14.44 32.9243 14.44C33.1323 14.44 33.3109 14.4053 33.4603 14.336C33.6149 14.2667 33.7349 14.168 33.8203 14.04C33.9109 13.9067 33.9563 13.7467 33.9563 13.56C33.9563 13.3467 33.8949 13.1787 33.7723 13.056C33.6549 12.9333 33.4736 12.8213 33.2283 12.72C32.9829 12.6133 32.6656 12.48 32.2763 12.32C31.9456 12.1813 31.6283 12.024 31.3243 11.848C31.0203 11.672 30.7723 11.448 30.5803 11.176C30.3936 10.904 30.3003 10.56 30.3003 10.144C30.3003 9.63733 30.4416 9.192 30.7243 8.808C31.0069 8.41867 31.3963 8.11467 31.8923 7.896C32.3936 7.67733 32.9696 7.568 33.6203 7.568C34.0256 7.568 34.4496 7.62933 34.8923 7.752C35.3403 7.87467 35.8176 8.06133 36.3243 8.312L35.4843 9.888C34.7963 9.44533 34.1803 9.224 33.6363 9.224C33.3323 9.224 33.0896 9.29067 32.9083 9.424C32.7269 9.55733 32.6363 9.72533 32.6363 9.928C32.6363 10.12 32.7296 10.288 32.9163 10.432C33.1083 10.5707 33.3403 10.696 33.6123 10.808C33.8896 10.9147 34.1536 11.0133 34.4043 11.104C34.8149 11.2533 35.1776 11.4187 35.4923 11.6C35.8123 11.7813 36.0629 12.0187 36.2443 12.312C36.4256 12.6 36.5163 12.9867 36.5163 13.472C36.5163 14.064 36.3723 14.568 36.0843 14.984C35.8016 15.3947 35.3909 15.7093 34.8523 15.928C34.3189 16.1467 33.6763 16.256 32.9243 16.256ZM41.4751 16.256C40.6591 16.256 40.0245 15.9973 39.5711 15.48C39.1178 14.9573 38.8911 14.2293 38.8911 13.296V9.672H37.7951V7.808H38.8911V4.736H41.3471V7.808H43.1471V9.672H41.3471V13.12C41.3471 13.4293 41.4085 13.664 41.5311 13.824C41.6591 13.984 41.8378 14.064 42.0671 14.064C42.3231 14.064 42.5685 13.9787 42.8031 13.808L43.4191 15.776C43.1418 15.9253 42.8298 16.0427 42.4831 16.128C42.1418 16.2133 41.8058 16.256 41.4751 16.256Z" fill="white"/>
</svg>
